<svg width="87" height="32" viewBox="0 0 87 32" fill="none" xmlns="http://www.w3.org/2000/svg">
<g clip-path="url(#clip0_117_27)">
<path d="M44.4851 10.5991L48.5845 10.3341C48.678 11.0043 48.8495 11.5031 49.1301 11.8616C49.5821 12.4227 50.2056 12.7033 51.0317 12.7033C51.6395 12.7033 52.1227 12.563 52.4501 12.2669C52.7618 12.0331 52.9489 11.659 52.9489 11.2693C52.9489 10.8952 52.7774 10.5367 52.4812 10.3029C52.1695 10.0224 51.4369 9.74179 50.2835 9.4924C48.3975 9.07155 47.0414 8.51042 46.2465 7.79342C45.4515 7.12318 44.9995 6.1412 45.0307 5.09688C45.0307 4.37988 45.2489 3.66288 45.6542 3.07058C46.1218 2.40034 46.7608 1.87038 47.5246 1.57423C48.3507 1.21573 49.5041 1.02869 50.9537 1.02869C52.7306 1.02869 54.0867 1.35601 55.0219 2.02625C55.9571 2.6809 56.5183 3.74081 56.6897 5.1904L52.6371 5.4242C52.528 4.80073 52.3098 4.34871 51.9513 4.05255C51.5928 3.7564 51.1252 3.61612 50.5173 3.61612C50.0185 3.61612 49.6444 3.72523 49.395 3.92786C49.1612 4.1149 49.0054 4.39547 49.0209 4.70721C49.0209 4.94101 49.1456 5.15923 49.3327 5.29951C49.5353 5.48655 50.0185 5.65801 50.7823 5.81388C52.6683 6.21914 54.0088 6.6244 54.8349 7.04525C55.661 7.4661 56.2533 7.98046 56.6118 8.58836C56.9859 9.21183 57.1729 9.92883 57.1573 10.6614C57.1573 11.5343 56.9079 12.4072 56.4092 13.1397C55.8948 13.9035 55.1778 14.4958 54.3361 14.8543C53.4476 15.244 52.3254 15.4466 50.9849 15.4466C48.6157 15.4466 46.9791 14.9946 46.0594 14.075C45.1398 13.1553 44.5942 12.0019 44.4851 10.5991ZM0.981978 15.2128V1.27808H8.16756C9.49245 1.27808 10.5212 1.38719 11.2226 1.62099C11.9084 1.83921 12.5163 2.29123 12.9216 2.89912C13.3736 3.56936 13.5918 4.34871 13.5762 5.15923C13.623 6.53088 12.9216 7.84018 11.7214 8.52601C11.2538 8.79099 10.7394 8.97803 10.2094 9.07155C10.5991 9.18066 10.9888 9.3677 11.3317 9.58592C11.5967 9.80414 11.8149 10.0535 12.0175 10.3185C12.2513 10.5835 12.454 10.8796 12.6254 11.1914L14.7141 15.2284H9.81978L7.51291 10.942C7.21676 10.3964 6.96736 10.0379 6.73356 9.86648C6.42182 9.64827 6.04774 9.53916 5.67365 9.53916H5.29956V15.1972H0.981978V15.2128ZM5.29956 6.92055H7.12323C7.51291 6.88938 7.88699 6.82703 8.26108 6.73351C8.54165 6.68675 8.79104 6.53088 8.96249 6.29707C9.38334 5.73594 9.32099 4.94101 8.80662 4.45781C8.52606 4.22401 7.98052 4.09931 7.20117 4.09931H5.29956V6.92055ZM0 27.1524L4.09937 26.8874C4.19289 27.5577 4.36434 28.0564 4.64491 28.4149C5.08134 28.9761 5.72041 29.2722 6.54652 29.2722C7.15441 29.2722 7.6376 29.1319 7.96493 28.8358C8.27667 28.5864 8.46371 28.2279 8.46371 27.8382C8.46371 27.4641 8.29225 27.1056 7.9961 26.8718C7.68436 26.5913 6.95178 26.3107 5.78276 26.0613C3.89674 25.6405 2.54067 25.0793 1.74574 24.3623C0.950804 23.6921 0.498782 22.7101 0.529956 21.6658C0.529956 20.9488 0.748173 20.2318 1.15343 19.6395C1.62104 18.9693 2.26011 18.4393 3.02387 18.1432C3.84998 17.7847 5.00341 17.5976 6.453 17.5976C8.22991 17.5976 9.58597 17.9249 10.5212 18.5952C11.4564 19.2654 12.0019 20.3097 12.1734 21.7593L8.1208 21.9931C8.01169 21.3697 7.79347 20.9176 7.43497 20.6215C7.09206 20.3253 6.60886 20.185 6.00097 20.2006C5.50219 20.2006 5.1281 20.3097 4.87871 20.528C4.62932 20.715 4.48904 20.9956 4.50463 21.3073C4.50463 21.5411 4.62932 21.7593 4.81637 21.8996C5.019 22.0866 5.50219 22.2581 6.26595 22.414C8.15197 22.8192 9.49245 23.2245 10.3186 23.6453C11.1447 24.0662 11.737 24.5806 12.0955 25.1885C12.4696 25.8119 12.6566 26.5289 12.6566 27.2459C12.6566 28.1188 12.3916 28.9761 11.9084 29.7087C11.3941 30.4724 10.6771 31.0647 9.83536 31.4232C8.94691 31.8129 7.82465 32.0155 6.48417 32.0155C4.11495 32.0155 2.47832 31.5635 1.55869 30.6439C0.639065 29.7087 0.124696 28.5552 0 27.1524Z" fill="black"/>
<path d="M20.7305 26.0614L24.5025 27.1992C24.2999 28.15 23.8791 29.0541 23.3023 29.849C22.7724 30.5504 22.071 31.096 21.276 31.4545C20.4655 31.813 19.4368 32 18.1898 32C16.6779 32 15.4309 31.7818 14.4801 31.3453C13.5137 30.9089 12.6876 30.1296 11.9862 29.0229C11.2848 27.9162 10.9419 26.4978 10.9419 24.7676C10.9419 22.4608 11.5498 20.6839 12.7812 19.4525C14.0125 18.2211 15.7427 17.5977 17.9872 17.5977C19.7485 17.5977 21.1202 17.9562 22.1333 18.6576C23.1309 19.3746 23.8791 20.4657 24.3778 21.9308L20.5746 22.7725C20.4811 22.4452 20.3408 22.1179 20.1538 21.8373C19.92 21.51 19.6238 21.2606 19.2653 21.0735C18.9068 20.8865 18.5016 20.8086 18.0963 20.8086C17.1143 20.8086 16.3662 21.1982 15.8518 21.9932C15.4621 22.5699 15.2595 23.4895 15.2595 24.7365C15.2595 26.2796 15.4933 27.3395 15.9609 27.9162C16.4285 28.4929 17.0832 28.7735 17.9404 28.7735C18.7665 28.7735 19.39 28.5397 19.8109 28.0877C20.2317 27.6045 20.5435 26.9342 20.7305 26.0614ZM29.5371 17.8315H33.8391V22.7102H38.5464V17.8315H42.8795V31.7662H38.5464V26.1237H33.8391V31.7662H29.5371V17.8315Z" fill="black"/>
<path d="M42.2876 24.7988C42.2876 22.5231 42.9267 20.7462 44.1892 19.4836C45.4517 18.2211 47.2287 17.582 49.4888 17.582C51.8112 17.582 53.5881 18.2055 54.8507 19.4525C56.1132 20.6994 56.7367 22.4452 56.7367 24.6897C56.7367 26.3263 56.4561 27.6512 55.9106 28.6955C55.3806 29.7243 54.5545 30.566 53.5414 31.1271C52.497 31.7038 51.2033 32 49.6602 32C48.0859 32 46.7922 31.7506 45.7635 31.2518C44.7036 30.7218 43.8307 29.8957 43.254 28.8826C42.6149 27.7915 42.2876 26.4354 42.2876 24.7988ZM46.5896 24.8144C46.5896 26.2172 46.8546 27.2303 47.3689 27.8538C47.8833 28.4617 48.6003 28.7735 49.5044 28.7735C50.424 28.7735 51.141 28.4773 51.6554 27.8694C52.1697 27.2615 52.4191 26.186 52.4191 24.6273C52.4191 23.318 52.1541 22.3516 51.6242 21.7593C51.0942 21.1514 50.3772 20.8553 49.4732 20.8553C48.6782 20.8241 47.9145 21.167 47.3845 21.7749C46.8546 22.3828 46.5896 23.396 46.5896 24.8144ZM61.1478 24.7988C61.1478 22.5231 61.7869 20.7462 63.0494 19.4836C64.312 18.2211 66.0889 17.582 68.349 17.582C70.6714 17.582 72.4639 18.2055 73.7109 19.4525C74.9578 20.6994 75.5969 22.4452 75.5969 24.6897C75.5969 26.3263 75.3163 27.6512 74.7708 28.6955C74.2408 29.7243 73.4147 30.566 72.4016 31.1271C71.3573 31.7038 70.0635 32 68.5204 32C66.9461 32 65.6524 31.7506 64.6237 31.2518C63.5638 30.7218 62.6909 29.8957 62.1142 28.8826C61.4751 27.7915 61.1478 26.4354 61.1478 24.7988ZM65.4498 24.8144C65.4498 26.2172 65.7148 27.2303 66.2291 27.8538C66.7435 28.4617 67.4605 28.7735 68.3646 28.7735C69.2842 28.7735 70.0012 28.4773 70.5156 27.8694C71.0299 27.2615 71.2793 26.186 71.2793 24.6273C71.2793 23.318 71.0143 22.3516 70.4844 21.7593C69.9544 21.1514 69.2374 20.8553 68.3334 20.8553C67.5385 20.8241 66.7591 21.167 66.2447 21.7749C65.7148 22.3828 65.4498 23.396 65.4498 24.8144Z" fill="black"/>
<path d="M75.1445 17.8314H79.4465V28.337H86.1645V31.7662H75.1289V17.8314H75.1445Z" fill="black"/>
<path d="M70.403 17.0273C74.7342 13.7634 76.0698 8.23057 73.3861 4.66937C70.7025 1.10817 65.0158 0.867162 60.6846 4.13107C56.3534 7.39497 55.0178 12.9278 57.7015 16.489C60.3851 20.0502 66.0718 20.2912 70.403 17.0273Z" fill="white"/>
<mask id="mask0_117_27" style="mask-type:luminance" maskUnits="userSpaceOnUse" x="56" y="1" width="19" height="19">
<path d="M70.403 17.0273C74.7342 13.7634 76.0698 8.23057 73.3861 4.66937C70.7025 1.10817 65.0158 0.867162 60.6846 4.13107C56.3534 7.39497 55.0178 12.9278 57.7015 16.489C60.3851 20.0502 66.0718 20.2912 70.403 17.0273Z" fill="white"/>
</mask>
<g mask="url(#mask0_117_27)">
<path d="M46.6558 8.81299L69.0375 -8.05347L84.525 12.4984L62.1433 29.3648L46.6558 8.81299Z" fill="white"/>
<mask id="mask1_117_27" style="mask-type:luminance" maskUnits="userSpaceOnUse" x="46" y="-9" width="39" height="39">
<path d="M46.6558 8.81299L69.0375 -8.05347L84.525 12.4984L62.1433 29.3648L46.6558 8.81299Z" fill="white"/>
</mask>
<g mask="url(#mask1_117_27)">
<path d="M70.403 17.0273C74.7342 13.7634 76.0698 8.23057 73.3861 4.66937C70.7025 1.10817 65.0158 0.867162 60.6846 4.13107C56.3534 7.39497 55.0178 12.9278 57.7015 16.489C60.3851 20.0502 66.0718 20.2912 70.403 17.0273Z" fill="white"/>
<mask id="mask2_117_27" style="mask-type:luminance" maskUnits="userSpaceOnUse" x="56" y="1" width="19" height="19">
<path d="M70.403 17.0273C74.7342 13.7634 76.0698 8.23057 73.3861 4.66937C70.7025 1.10817 65.0158 0.867162 60.6846 4.13107C56.3534 7.39497 55.0178 12.9278 57.7015 16.489C60.3851 20.0502 66.0718 20.2912 70.403 17.0273Z" fill="white"/>
</mask>
<g mask="url(#mask2_117_27)">
<path d="M52.8882 10.1853L68.5606 -1.6247L78.2881 11.2842L62.6157 23.0942L52.8882 10.1853Z" fill="white"/>
<mask id="mask3_117_27" style="mask-type:luminance" maskUnits="userSpaceOnUse" x="52" y="-2" width="27" height="26">
<path d="M52.8882 10.1853L68.5606 -1.6247L78.2881 11.2842L62.6157 23.0942L52.8882 10.1853Z" fill="white"/>
</mask>
<g mask="url(#mask3_117_27)">
<path d="M70.403 17.0273C74.7342 13.7634 76.0698 8.23057 73.3861 4.66937C70.7025 1.10817 65.0158 0.867162 60.6846 4.13107C56.3534 7.39497 55.0178 12.9278 57.7015 16.489C60.3851 20.0502 66.0718 20.2912 70.403 17.0273Z" fill="white" stroke="black" stroke-width="4" stroke-miterlimit="10"/>
</g>
<mask id="mask4_117_27" style="mask-type:luminance" maskUnits="userSpaceOnUse" x="55" y="-1" width="22" height="24">
<path d="M55.1216 17.9377L60.5307 -0.926025L76.0682 3.52928L70.6591 22.3931L55.1216 17.9377Z" fill="white"/>
</mask>
<g mask="url(#mask4_117_27)">
<path d="M52.8882 10.1853L68.5606 -1.6247L78.2881 11.2842L62.6157 23.0942L52.8882 10.1853Z" stroke="black" stroke-width="4" stroke-miterlimit="10"/>
</g>
<path d="M70.403 17.0273C74.7342 13.7634 76.0698 8.23057 73.3861 4.66937C70.7025 1.10817 65.0158 0.867162 60.6846 4.13107C56.3534 7.39497 55.0178 12.9278 57.7015 16.489C60.3851 20.0502 66.0718 20.2912 70.403 17.0273Z" stroke="black" stroke-width="4" stroke-miterlimit="10"/>
<path d="M52.8882 10.1853L68.5606 -1.6247L78.2881 11.2842L62.6157 23.0942L52.8882 10.1853Z" fill="white"/>
<mask id="mask5_117_27" style="mask-type:luminance" maskUnits="userSpaceOnUse" x="52" y="-2" width="27" height="26">
<path d="M52.8882 10.1853L68.5606 -1.6247L78.2881 11.2842L62.6157 23.0942L52.8882 10.1853Z" fill="white"/>
</mask>
<g mask="url(#mask5_117_27)">
<path d="M70.403 17.0273C74.7342 13.7634 76.0698 8.23057 73.3861 4.66937C70.7025 1.10817 65.0158 0.867162 60.6846 4.13107C56.3534 7.39497 55.0178 12.9278 57.7015 16.489C60.3851 20.0502 66.0718 20.2912 70.403 17.0273Z" fill="white" stroke="black" stroke-width="4" stroke-miterlimit="10"/>
</g>
<mask id="mask6_117_27" style="mask-type:luminance" maskUnits="userSpaceOnUse" x="55" y="-1" width="22" height="24">
<path d="M55.1216 17.9377L60.5307 -0.926025L76.0682 3.52928L70.6591 22.3931L55.1216 17.9377Z" fill="white"/>
</mask>
<g mask="url(#mask6_117_27)">
<path d="M52.8882 10.1853L68.5606 -1.6247L78.2881 11.2842L62.6157 23.0942L52.8882 10.1853Z" stroke="black" stroke-width="4" stroke-miterlimit="10"/>
</g>
<path d="M46.6558 8.81299L69.0375 -8.05347L84.525 12.4984L62.1433 29.3648L46.6558 8.81299Z" stroke="black" stroke-width="4" stroke-miterlimit="10"/>
</g>
<path d="M70.403 17.0273C74.7342 13.7634 76.0698 8.23057 73.3861 4.66937C70.7025 1.10817 65.0158 0.867162 60.6846 4.13107C56.3534 7.39497 55.0178 12.9278 57.7015 16.489C60.3851 20.0502 66.0718 20.2912 70.403 17.0273Z" stroke="black" stroke-width="4" stroke-miterlimit="10"/>
<path d="M61.1632 9.55476L62.7219 8.46367L64.6391 11.1914C64.9664 11.6278 65.2158 12.0954 65.4028 12.6098C65.512 12.9995 65.4808 13.4203 65.3249 13.7944C65.1223 14.262 64.795 14.6517 64.3585 14.9323C63.8441 15.2908 63.4077 15.4934 63.0336 15.5557C62.6751 15.6181 62.301 15.5557 61.9581 15.3999C61.584 15.2128 61.2567 14.9478 61.0073 14.6049L62.3478 13.358C62.4569 13.5294 62.5972 13.6853 62.7531 13.81C62.8622 13.8879 62.9869 13.9347 63.1271 13.9347C63.2363 13.9347 63.3454 13.8879 63.4233 13.8256C63.5792 13.7321 63.6883 13.545 63.6727 13.358C63.6259 13.093 63.5168 12.828 63.3454 12.6254L61.1632 9.55476ZM65.8393 11.2849L67.2577 10.1626C67.4136 10.3497 67.6162 10.49 67.8344 10.5679C68.1461 10.6614 68.4735 10.5991 68.7385 10.3965C68.9255 10.2718 69.0814 10.1003 69.1437 9.88208C69.2372 9.60152 69.0814 9.28978 68.8008 9.19626C68.754 9.18067 68.7073 9.16508 68.6605 9.16508C68.4735 9.1495 68.1461 9.22743 67.663 9.43006C66.868 9.75739 66.2445 9.88208 65.7769 9.83532C65.3249 9.78856 64.9041 9.55476 64.6547 9.16508C64.4676 8.90011 64.3741 8.58837 64.3585 8.27663C64.3585 7.91813 64.452 7.55963 64.6547 7.26348C64.9508 6.84263 65.3093 6.48413 65.7458 6.20356C66.4004 5.75154 66.9771 5.53333 67.4759 5.53333C67.9747 5.53333 68.4423 5.76713 68.8787 6.25032L67.4759 7.357C67.1953 6.9985 66.6654 6.92056 66.3069 7.20113L66.2601 7.24789C66.1043 7.34141 65.9951 7.48169 65.9328 7.65315C65.886 7.77785 65.9172 7.91813 65.9951 8.02724C66.0575 8.10517 66.151 8.16752 66.2601 8.16752C66.3848 8.18311 66.603 8.12076 66.9148 7.98048C67.6941 7.65315 68.2864 7.46611 68.6917 7.40376C69.0346 7.34141 69.3931 7.37259 69.7204 7.51287C70.0166 7.63756 70.266 7.85578 70.4374 8.12076C70.6556 8.4325 70.7803 8.80658 70.7959 9.19626C70.8115 9.60152 70.7024 9.99119 70.4842 10.3341C70.2036 10.755 69.8451 11.1135 69.4243 11.394C68.567 11.9863 67.8656 12.2357 67.3044 12.1422C66.6966 12.0487 66.1978 11.7369 65.8393 11.2849Z" fill="black"/>
</g>
</g>
</g>
<defs>
<clipPath id="clip0_117_27">
<rect width="86.1646" height="32" fill="white"/>
</clipPath>
</defs>
</svg>
